<?xml version="1.0" encoding="UTF-8" standalone="no"?>
<!-- Created with Inkscape (http://www.inkscape.org/) -->

<svg
   width="210mm"
   height="297mm"
   viewBox="0 0 210 297"
   version="1.1"
   id="svg1"
   inkscape:export-filename="bmo.png"
   inkscape:export-xdpi="96"
   inkscape:export-ydpi="96"
   inkscape:version="1.4 (e7c3feb1, 2024-10-09)"
   sodipodi:docname="bmo.svg"
   xmlns:inkscape="http://www.inkscape.org/namespaces/inkscape"
   xmlns:sodipodi="http://sodipodi.sourceforge.net/DTD/sodipodi-0.dtd"
   xmlns="http://www.w3.org/2000/svg"
   xmlns:svg="http://www.w3.org/2000/svg">
  <sodipodi:namedview
     id="namedview1"
     pagecolor="#ffffff"
     bordercolor="#000000"
     borderopacity="0.25"
     inkscape:showpageshadow="2"
     inkscape:pageopacity="0.0"
     inkscape:pagecheckerboard="0"
     inkscape:deskcolor="#d1d1d1"
     inkscape:document-units="mm"
     inkscape:zoom="0.77047942"
     inkscape:cx="-12.978932"
     inkscape:cy="434.14528"
     inkscape:window-width="2480"
     inkscape:window-height="1092"
     inkscape:window-x="41"
     inkscape:window-y="50"
     inkscape:window-maximized="0"
     inkscape:current-layer="layer1" />
  <defs
     id="defs1" />
  <path
     id="rect1-5"
     style="fill:#5fd3bc;stroke-width:0.264583"
     d="m 62.441406,71.135869 c -4.059,0 -7.32669,3.267689 -7.32669,7.326689 v 93.704852 c 0,1.87555 0.69792,3.58235 1.84898,4.87568 1.21564,1.36588 5.4281,5.79721 6.35684,7.02499 1.33539,1.76534 3.45411,2.90205 5.8481,2.90205 h 74.423884 c 4.05899,0 7.32669,-3.2677 7.32669,-7.32669 V 85.938584 c 0,-0.39704 -0.0999,-1.34109 -0.28211,-1.8347 -1.21268,-3.285785 -6.06942,-7.95503 -9.34912,-11.490896 -1.04638,-1.128111 -2.75857,-1.477119 -4.42269,-1.477119 z"
     sodipodi:nodetypes="sssssssssssss"
     inkscape:label="body"
     inkscape:export-filename="bmo.png"
     inkscape:export-xdpi="96"
     inkscape:export-ydpi="96" />
  <g
     inkscape:label="Layer 1"
     inkscape:groupmode="layer"
     id="layer1">
    <g
       id="g2"
       transform="rotate(-35.656156,-1.0019019,34.710295)"
       inkscape:label="Lfoot"
       inkscape:transform-center-x="-4.0358418"
       inkscape:transform-center-y="1.942624">
      <path
         id="path1"
         style="fill:#5fd3bc;stroke-width:0.0512222"
         d="m -47.984668,197.46237 c -0.07626,8.8e-4 -0.14886,0.012 -0.216524,0.0351 l -9.225794,3.14967 c -0.503164,0.17176 -0.532867,0.91476 -0.06666,1.66554 l 10.76265,17.33227 c 0.255255,0.41106 0.60481,0.73122 0.951363,0.91364 l 0.286288,0.6103 c 0.235175,0.50153 1.236573,0.52443 2.245858,0.0512 l 23.300386,-10.92595 c 1.009277,-0.47327 1.632507,-1.25806 1.397331,-1.75958 l -4.312398,-9.19582 c -0.235175,-0.50153 -1.237099,-0.52443 -2.246375,-0.0512 l -16.171623,7.58351 -5.17126,-8.32817 c -0.215416,-0.34692 -0.497868,-0.63321 -0.789099,-0.82372 -0.254286,-0.16633 -0.515377,-0.25949 -0.744141,-0.25683 z" />
      <path
         id="path2"
         style="fill:#aaeeff;fill-opacity:1;stroke-width:0.0302158"
         d="m -40.481377,216.58937 -5.106106,1.98537 c -0.278479,0.10826 -0.803653,-0.30868 -1.177516,-0.93489 l -8.630943,-14.45657 c -0.373865,-0.62622 -0.450658,-1.21754 -0.172162,-1.3258 l 5.106102,-1.98539 c 0.149812,-0.0581 0.371002,0.0357 0.601612,0.23204 0.198094,0.16883 0.403155,0.4135 0.575906,0.70286 l 8.630944,14.45657 c 0.373861,0.6262 0.450654,1.21752 0.172163,1.32581 z"
         sodipodi:nodetypes="ssssssssss" />
    </g>
    <g
       id="g1"
       transform="matrix(-0.81969287,-0.57280327,-0.57280327,0.81969287,230.65628,2.4472888)"
       inkscape:label="Rfoot">
      <path
         id="rect1"
         style="fill:#5fd3bc;stroke-width:0.0512222"
         d="m -47.984668,197.46237 c -0.07626,8.8e-4 -0.14886,0.012 -0.216524,0.0351 l -9.225794,3.14967 c -0.503164,0.17176 -0.532867,0.91476 -0.06666,1.66554 l 10.76265,17.33227 c 0.255255,0.41106 0.60481,0.73122 0.951363,0.91364 l 0.286288,0.6103 c 0.235175,0.50153 1.236573,0.52443 2.245858,0.0512 l 23.300386,-10.92595 c 1.009277,-0.47327 1.632507,-1.25806 1.397331,-1.75958 l -4.312398,-9.19582 c -0.235175,-0.50153 -1.237099,-0.52443 -2.246375,-0.0512 l -16.171623,7.58351 -5.17126,-8.32817 c -0.215416,-0.34692 -0.497868,-0.63321 -0.789099,-0.82372 -0.254286,-0.16633 -0.515377,-0.25949 -0.744141,-0.25683 z" />
      <path
         id="rect1-7-0"
         style="fill:#aaeeff;fill-opacity:1;stroke-width:0.0302158"
         d="m -40.481377,216.58937 -5.106106,1.98537 c -0.278479,0.10826 -0.803653,-0.30868 -1.177516,-0.93489 l -8.630943,-14.45657 c -0.373865,-0.62622 -0.450658,-1.21754 -0.172162,-1.3258 l 5.106102,-1.98539 c 0.149812,-0.0581 0.371002,0.0357 0.601612,0.23204 0.198094,0.16883 0.403155,0.4135 0.575906,0.70286 l 8.630944,14.45657 c 0.373861,0.6262 0.450654,1.21752 0.172163,1.32581 z"
         sodipodi:nodetypes="ssssssssss" />
    </g>
    <path
       id="rect1-4"
       style="fill:#aaeeff;stroke-width:0.257598"
       d="m 70.896777,80.134149 h 72.267333 c 3.94136,0 7.11439,3.189875 7.11439,7.152175 V 178.7589 c 0,3.9623 -3.17303,7.15217 -7.11439,7.15217 H 70.896777 c -3.941377,0 -7.114399,-3.18987 -7.114399,-7.15217 V 87.286324 c 0,-3.9623 3.173022,-7.152175 7.114399,-7.152175 z"
       inkscape:label="belly" />
    <path
       id="rect1-4-8"
       style="fill:#aaccff;stroke-width:0.177972"
       d="m 77.435703,90.516765 h 60.797427 c 3.3158,0 5.98523,1.809887 5.98523,4.058033 v 51.900072 c 0,2.24815 -2.66943,4.05803 -5.98523,4.05803 H 77.435703 c -3.315815,0 -5.985229,-1.80988 -5.985229,-4.05803 V 94.574798 c 0,-2.248146 2.669414,-4.058033 5.985229,-4.058033 z"
       inkscape:label="belly" />
    <path
       id="rect1-4-8-4"
       style="fill:#fffef1;fill-opacity:1;stroke-width:0.0886481"
       d="m 78.959041,158.6292 h 56.974129 c 3.10728,0 5.60884,0.47918 5.60884,1.07439 v 13.74089 c 0,0.59521 -2.50156,1.07439 -5.60884,1.07439 H 78.959041 c -3.107299,0 -5.608844,-0.47918 -5.608844,-1.07439 v -13.74089 c 0,-0.59521 2.501545,-1.07439 5.608844,-1.07439 z"
       inkscape:label="belly" />
    <g
       id="g3"
       transform="translate(-35.530761,28.748111)"
       inkscape:export-filename="face.png"
       inkscape:export-xdpi="96"
       inkscape:export-ydpi="96">
      <ellipse
         style="fill:#000000;fill-opacity:1;stroke-width:0.0748716"
         id="path3-8"
         cx="-62.57745"
         cy="171.38766"
         rx="3.7593386"
         ry="4.7114115" />
      <path
         id="path3-52"
         style="stroke-width:0.144523"
         d="m -71.09675,158.13338 c 0.19187,4.06769 -0.8273,-6.30156 -8.35322,-5.88437 -7.13807,0.39568 -8.61103,9.73417 -8.33457,5.88437 0.31287,-4.35695 3.73569,-7.90927 8.3439,-7.90927 4.6082,1e-5 8.13807,3.54596 8.34389,7.90927 z"
         sodipodi:nodetypes="sssss" />
      <path
         id="path3-52-0"
         style="stroke-width:0.144523"
         d="m -41.34719,157.23215 c 0.19187,4.06769 -0.82731,-6.30156 -8.35322,-5.88437 -7.13807,0.39568 -8.61103,9.73417 -8.33458,5.88437 0.31288,-4.35695 3.7357,-7.90927 8.3439,-7.90927 4.60821,1e-5 8.13807,3.54596 8.3439,7.90927 z"
         sodipodi:nodetypes="sssss" />
    </g>
    <g
       id="g4"
       transform="translate(-31.855256,50.909147)"
       inkscape:export-filename="onhoverface.png"
       inkscape:export-xdpi="96"
       inkscape:export-ydpi="96">
      <ellipse
         style="fill:#000000;fill-opacity:1;stroke-width:0.144523"
         id="path3"
         cx="-80.935722"
         cy="81.748268"
         rx="8.3438978"
         ry="7.9092622" />
      <ellipse
         style="fill:#000000;fill-opacity:1;stroke-width:0.144523"
         id="path3-5"
         cx="-50.057411"
         cy="81.504875"
         rx="8.3438978"
         ry="7.9092622" />
      <ellipse
         style="fill:#ffffff;fill-opacity:1;stroke-width:0.0691435"
         id="path3-85"
         cx="-86.847588"
         cy="75.575645"
         rx="4.1620111"
         ry="3.6293666" />
      <ellipse
         style="fill:#ffffff;fill-opacity:1;stroke-width:0.0691435"
         id="path3-5-8"
         cx="-54.023888"
         cy="75.575645"
         rx="4.1620111"
         ry="3.6293666" />
      <path
         id="path3-52-2"
         style="stroke-width:0.0713977"
         d="m -66.324371,99.345181 c 0.103257,-1.84465 -0.445246,2.857669 -4.495572,2.668479 -3.841595,-0.17944 -4.63433,-4.414319 -4.48553,-2.668479 0.168369,1.975809 2.01049,3.586739 4.490551,3.586739 2.480061,0 4.379772,-1.60804 4.490551,-3.586739 z"
         sodipodi:nodetypes="sssss" />
      <path
         id="path3-52-0-8"
         style="stroke-width:0.0713977"
         d="m -57.534577,99.200731 c 0.103257,-1.84464 -0.445246,2.857669 -4.495572,2.668479 -3.841595,-0.17943 -4.63433,-4.414309 -4.485548,-2.668479 0.168369,1.975819 2.010508,3.586749 4.490569,3.586749 2.48006,-1e-5 4.379772,-1.60805 4.490551,-3.586749 z"
         sodipodi:nodetypes="sssss" />
    </g>
    <g
       id="g5"
       transform="translate(-216.34257,7.898221)"
       inkscape:export-filename="music.png"
       inkscape:export-xdpi="96"
       inkscape:export-ydpi="96">
      <path
         id="path4"
         style="opacity:1;fill:#4400aa;stroke-width:0.264583"
         d="m 173.61593,55.615363 c -2.2079,0.15537 -6.28553,0.99261 -6.35584,0.99257 -0.68953,3.8e-4 -1.24849,3.56021 -1.24851,7.95145 5.3e-4,2.00309 0.11975,3.9311 0.33383,5.39864 -0.78571,-0.48414 -1.69038,-0.74068 -2.61327,-0.74104 -2.75326,1e-5 -4.98522,2.23197 -4.98523,4.98523 2e-5,2.75326 2.23197,4.98521 4.98523,4.98522 2.75325,-2e-5 4.9852,-2.23197 4.98522,-4.98522 10e-6,-0.51042 -3.6425,-8.47052 -0.74619,-16.17679 1.14811,0.23865 3.89639,0.5827 4.86844,0.16691 0.97205,-0.41579 1.40173,-2.34857 0.77632,-2.57697 z"
         sodipodi:nodetypes="cccccsssczc" />
      <path
         id="path4-0"
         style="fill:#4400aa;stroke-width:0.264583"
         d="m 190.71332,26.182432 c -0.68578,-0.0058 -1.4121,0.01753 -2.14354,0.06873 -2.20843,0.155512 -5.4079,0.909198 -5.47821,0.908988 -1.09825,6.08e-4 -1.64157,8.367141 -0.91468,13.350081 -0.78571,-0.48414 -1.69038,-0.74068 -2.61327,-0.74104 -2.75326,1e-5 -4.98522,2.23197 -4.98523,4.98523 2e-5,2.75326 2.23197,4.98521 4.98523,4.98522 2.75325,-2e-5 4.9852,-2.23197 4.98522,-4.98522 -0.92773,-4.9126 -2.50431,-11.315205 -0.74621,-16.17627 2.78717,-1.206799 8.62311,-1.143305 10.43296,-1.00614 -0.69877,2.549776 -0.83578,8.56929 -0.29404,12.28297 -0.78571,-0.48414 -1.69039,-0.74068 -2.61328,-0.74104 -2.75325,2e-5 -4.9852,2.23197 -4.98522,4.98522 1e-5,2.75326 2.23196,4.98521 4.98522,4.98523 2.75326,-10e-6 4.98522,-2.23197 4.98523,-4.98523 -1.93283,-5.85077 -0.76797,-11.691268 -0.84414,-17.729861 -0.11742,0.0043 -2.82522,-0.170334 -4.75604,-0.186868 z"
         sodipodi:nodetypes="cccccsscccccssscc" />
    </g>
    <path
       style="font-size:52.2px;font-family:'.SF Camera';-inkscape-font-specification:'.SF Camera';fill:#ff5599;stroke-width:4.34999"
       d="m -103.04474,61.298545 q -0.17641,1.460383 0.65624,2.610226 0.83581,1.123751 2.18333,1.311006 1.445507,0.200872 2.520727,-0.657318 1.10288,-0.880877 1.27929,-2.341259 0.18586,-1.538622 -0.67129,-2.691859 -0.83266,-1.149833 -2.27817,-1.350704 -1.347517,-0.187256 -2.425887,0.697016 -1.07838,0.88427 -1.26424,2.422892 z m 5.061657,-32.415208 -2.260147,22.834469 3.405547,0.473243 3.24017,-22.698283 z m 12.22093,26.278658 3.84655,0.534526 0.1008,-0.834501 q 0.20162,-1.669013 0.60658,-2.752934 0.42946,-1.080506 1.35139,-1.906974 0.94642,-0.823064 2.6989,-1.71973 1.48543,-0.748153 2.65865,-1.592735 1.17322,-0.844573 1.92504,-2.118934 0.75182,-1.274361 1.00069,-3.334555 l 0.0536,-0.44333 q 0.33393,-2.764305 -0.52916,-4.899466 -0.83545,-2.157827 -2.91132,-3.533454 -2.05137,-1.372224 -5.38342,-1.835254 l -0.049,-0.0068 q -3.33204,-0.46303 -5.67569,0.377995 -2.34363,0.841036 -3.71076,2.878401 -1.36714,2.037375 -1.74832,5.192849 l -0.0725,0.599801 3.87105,0.537932 0.0378,-0.312941 q 0.37172,-3.077245 1.91771,-4.532922 1.57048,-1.452274 4.90253,-0.989244 l 0.049,0.0068 q 3.35655,0.466435 4.5245,2.140151 1.1711,1.647647 0.86868,4.151161 l -0.0126,0.10431 q -0.23942,1.981953 -1.22924,2.958083 -0.96217,0.953455 -3.16266,2.053022 -2.91555,1.450974 -4.16193,3.107383 -1.21873,1.633733 -1.57471,4.580587 z m 0.67367,12.158437 q 1.44551,0.200872 2.52074,-0.657318 1.10287,-0.880877 1.27928,-2.341259 0.18587,-1.538622 -0.67128,-2.691859 -0.83266,-1.149833 -2.27817,-1.350705 -1.34753,-0.187255 -2.42589,0.697017 -1.07838,0.88427 -1.26425,2.422892 -0.17641,1.460383 0.65625,2.610226 0.8358,1.123751 2.18332,1.311006 z"
       id="text5"
       aria-label="! ?"
       inkscape:export-filename="onhover.png"
       inkscape:export-xdpi="96"
       inkscape:export-ydpi="96" />
  </g>
</svg>
